<mxfile host="app.diagrams.net" agent="Mozilla/5.0 (Windows NT 10.0; Win64; x64) AppleWebKit/537.36 (KHTML, like Gecko) Chrome/109.0.0.0 Safari/537.36" version="25.0.3">
  <diagram id="C5RBs43oDa-KdzZeNtuy" name="Page-1">
    <mxGraphModel dx="1434" dy="796" grid="1" gridSize="10" guides="1" tooltips="1" connect="1" arrows="1" fold="1" page="1" pageScale="1" pageWidth="827" pageHeight="1169" math="0" shadow="0">
      <root>
        <mxCell id="WIyWlLk6GJQsqaUBKTNV-0" />
        <mxCell id="WIyWlLk6GJQsqaUBKTNV-1" parent="WIyWlLk6GJQsqaUBKTNV-0" />
        <mxCell id="tRzvLrOEqvWV6c00gxRo-22" value="" style="edgeStyle=orthogonalEdgeStyle;rounded=0;orthogonalLoop=1;jettySize=auto;html=1;fontFamily=Times New Roman;fontSize=22;" edge="1" parent="WIyWlLk6GJQsqaUBKTNV-1" source="tRzvLrOEqvWV6c00gxRo-4" target="tRzvLrOEqvWV6c00gxRo-0">
          <mxGeometry relative="1" as="geometry" />
        </mxCell>
        <mxCell id="tRzvLrOEqvWV6c00gxRo-0" value="Interface Play&lt;br&gt;&lt;br&gt;Space makeStep()&amp;nbsp;" style="rounded=0;whiteSpace=wrap;html=1;fontFamily=Times New Roman;fontSize=22;" vertex="1" parent="WIyWlLk6GJQsqaUBKTNV-1">
          <mxGeometry x="615" y="20" width="180" height="170" as="geometry" />
        </mxCell>
        <mxCell id="tRzvLrOEqvWV6c00gxRo-12" style="edgeStyle=orthogonalEdgeStyle;rounded=0;orthogonalLoop=1;jettySize=auto;html=1;exitX=1;exitY=0.5;exitDx=0;exitDy=0;entryX=0;entryY=0.5;entryDx=0;entryDy=0;fontFamily=Times New Roman;fontSize=22;" edge="1" parent="WIyWlLk6GJQsqaUBKTNV-1" source="tRzvLrOEqvWV6c00gxRo-6" target="tRzvLrOEqvWV6c00gxRo-4">
          <mxGeometry relative="1" as="geometry" />
        </mxCell>
        <mxCell id="tRzvLrOEqvWV6c00gxRo-4" value="Class Player&lt;div&gt;&lt;br&gt;&lt;/div&gt;&lt;div&gt;boolean crosses;&lt;/div&gt;&lt;div&gt;&lt;br&gt;&lt;/div&gt;&lt;div&gt;Space makeStep();&lt;/div&gt;" style="rounded=0;whiteSpace=wrap;html=1;fontFamily=Times New Roman;fontSize=22;" vertex="1" parent="WIyWlLk6GJQsqaUBKTNV-1">
          <mxGeometry x="610" y="250" width="190" height="250" as="geometry" />
        </mxCell>
        <mxCell id="tRzvLrOEqvWV6c00gxRo-23" value="" style="edgeStyle=orthogonalEdgeStyle;rounded=0;orthogonalLoop=1;jettySize=auto;html=1;" edge="1" parent="WIyWlLk6GJQsqaUBKTNV-1" source="tRzvLrOEqvWV6c00gxRo-5" target="tRzvLrOEqvWV6c00gxRo-20">
          <mxGeometry relative="1" as="geometry">
            <Array as="points">
              <mxPoint x="140" y="200" />
              <mxPoint x="140" y="200" />
            </Array>
          </mxGeometry>
        </mxCell>
        <mxCell id="tRzvLrOEqvWV6c00gxRo-5" value="Class Field&lt;div&gt;&lt;br&gt;&lt;/div&gt;&lt;div&gt;List&amp;lt;Space&amp;gt; spaces&lt;/div&gt;" style="rounded=0;whiteSpace=wrap;html=1;fontFamily=Times New Roman;fontSize=22;" vertex="1" parent="WIyWlLk6GJQsqaUBKTNV-1">
          <mxGeometry x="40" y="250" width="200" height="250" as="geometry" />
        </mxCell>
        <mxCell id="tRzvLrOEqvWV6c00gxRo-24" value="" style="edgeStyle=orthogonalEdgeStyle;rounded=0;orthogonalLoop=1;jettySize=auto;html=1;" edge="1" parent="WIyWlLk6GJQsqaUBKTNV-1" source="tRzvLrOEqvWV6c00gxRo-6" target="tRzvLrOEqvWV6c00gxRo-5">
          <mxGeometry relative="1" as="geometry" />
        </mxCell>
        <mxCell id="tRzvLrOEqvWV6c00gxRo-6" value="Class Gameplay&lt;br&gt;&lt;br&gt;Fiels field&lt;br&gt;List&amp;lt;Player&amp;gt; players&lt;br&gt;&lt;br&gt;&lt;div&gt;void play();&lt;/div&gt;" style="whiteSpace=wrap;html=1;fontFamily=Times New Roman;fontSize=22;" vertex="1" parent="WIyWlLk6GJQsqaUBKTNV-1">
          <mxGeometry x="310" y="250" width="240" height="250" as="geometry" />
        </mxCell>
        <mxCell id="tRzvLrOEqvWV6c00gxRo-20" value="Class Space&lt;br&gt;&lt;br&gt;&lt;div&gt;int number;&lt;/div&gt;" style="rounded=0;whiteSpace=wrap;html=1;fontFamily=Times New Roman;fontSize=22;" vertex="1" parent="WIyWlLk6GJQsqaUBKTNV-1">
          <mxGeometry x="50" y="20" width="190" height="170" as="geometry" />
        </mxCell>
      </root>
    </mxGraphModel>
  </diagram>
</mxfile>
